  <svg xmlns="http://www.w3.org/2000/svg" version="1.0" width="362.000000pt" height="367.000000pt" viewBox="0 0 362.000000 367.000000" preserveAspectRatio="xMidYMid meet">

<g transform="translate(0.000000,367.000000) scale(0.100000,-0.100000)" fill="#000000" stroke="none">
<path d="M2023 2808 c-5 -7 -33 -56 -60 -108 -28 -52 -118 -221 -201 -375 -83 -154 -154 -288 -157 -298 -7 -16 4 -17 133 -17 77 0 147 3 156 6 8 3 45 62 82 130 37 68 68 123 69 122 1 -2 33 -61 70 -131 l67 -128 154 2 c85 1 154 5 154 10 0 7 -87 170 -352 659 -70 130 -93 156 -115 128z"/>
<path d="M1208 2561 c-191 -61 -328 -230 -354 -437 -21 -170 78 -379 226 -474 112 -72 123 -74 460 -80 290 -5 307 -6 346 -27 118 -63 161 -221 88 -326 -31 -44 -118 -97 -161 -97 -23 0 -23 0 -23 -141 l0 -142 58 6 c185 20 342 143 413 324 31 80 38 228 14 309 -50 175 -175 305 -345 360 -47 15 -99 18 -340 20 -182 1 -295 6 -314 13 -158 62 -191 271 -59 380 21 18 59 35 90 42 l53 12 0 139 0 138 -47 -1 c-27 0 -74 -8 -105 -18z"/>
<path d="M1155 1230 l-75 -150 157 0 158 0 73 143 c40 78 72 145 72 150 0 4 -70 7 -155 7 l-155 0 -75 -150z"/>
<path fill="#E41517" d="M2460 1365 c0 -3 31 -67 69 -143 l69 -137 145 0 c80 0 148 3 152 7 3 3 -26 67 -65 142 l-72 136 -149 0 c-82 0 -149 -2 -149 -5z"/>
</g>
</svg>